<?xml version="1.0" encoding="utf-8"?>
<!-- Generator: Adobe Illustrator 27.2.0, SVG Export Plug-In . SVG Version: 6.00 Build 0)  -->
<svg version="1.1" id="Capa_1" xmlns="http://www.w3.org/2000/svg" xmlns:xlink="http://www.w3.org/1999/xlink" x="0px" y="0px"
	 viewBox="0 0 275 272" style="enable-background:new 0 0 275 272;" xml:space="preserve">
<style type="text/css">
	.st0{fill:#00C2A3;}
	.st1{fill:#FFFFFF;}
</style>
<path class="st0" d="M253,272H22c-12.2,0-22-9.8-22-22V22C0,9.8,9.8,0,22,0h231c12.2,0,22,9.8,22,22v228
	C275,262.2,265.2,272,253,272z"/>
<path class="st1" d="M226.6,201.8c-6.1-0.2-12-1.3-17.8-3.1c-0.6-0.2-0.9-1.1-0.4-1.6c10.2-11.7,17.3-25.9,20.7-41.1
	c4.8-21.7,1.6-44.4-8.9-64.1c-10.5-19.6-27.7-34.9-48.4-43.1c-20.8-8.2-43.9-8.8-65-1.7c-21.1,7.1-39.1,21.5-50.6,40.6
	c-11.5,19.1-15.8,41.6-12.2,63.5c3.6,22,15,41.9,32,56.3c16.4,13.8,37.1,21.7,58.6,22.2c0.1,0,0.1,0,0.2,0c1.7,0,3.3-0.7,4.5-2.1
	c0.9-1.1,1.3-2.5,1.3-4v-15.9c0-3.2-2.5-5.8-5.8-5.9c-14.8-0.5-29.3-6-40.6-15.7c-12-10.1-20-24.1-22.5-39.5
	c-2.5-15.4,0.5-31.2,8.5-44.5c8.1-13.4,20.7-23.5,35.6-28.4c14.8-5,31.1-4.6,45.7,1.2c14.6,5.8,26.7,16.5,34,30.2
	c7.4,13.8,9.6,29.7,6.2,44.9c-2.7,12.3-9,23.6-17.9,32.5c-0.3,0.3-1.4,0.3-1.7,0c-6.2-6.1-11-13.3-14.4-21.3c-3.1-7.3-4.8-15-5-22.9
	c-0.1-3.2-2.7-5.8-5.9-5.8h-16c-1.4,0-3,0.5-4,1.4c-1.3,1.2-2.1,2.9-2.1,4.6c0.3,11.5,2.7,22.8,7.2,33.5
	c4.8,11.4,11.7,21.7,20.4,30.4c8.8,8.7,19.1,15.6,30.6,20.3c10.7,4.4,22,6.8,33.6,7.1c0.1,0,0.1,0,0.2,0c1.7,0,3.3-0.7,4.5-2.1
	c0.9-1.1,1.3-2.5,1.3-4v-15.9C232.5,204.6,229.9,201.9,226.6,201.8z"/>
</svg>
